<svg width="783" height="92" viewBox="0 0 783 92" fill="none" xmlns="http://www.w3.org/2000/svg">
<path d="M131.271 65.6816V25.8579H141.029C146.391 25.8579 150.875 27.6161 154.391 31.0446C157.908 34.4732 159.666 39.3962 159.666 45.8137C159.666 52.3191 157.908 57.2421 154.391 60.5828C150.875 64.0113 146.391 65.6816 140.941 65.6816H131.271ZM141.38 76.9342C150.435 76.9342 157.82 74.209 163.622 68.5827C169.336 63.0443 172.237 55.4839 172.237 45.8137C172.237 36.1435 169.336 28.5831 163.622 22.9568C157.908 17.4184 150.523 14.6053 141.468 14.6053H119.139V76.9342H141.38Z" fill="#391463"/>
<path d="M201.561 67.6157C198.484 67.6157 195.847 66.5607 193.737 64.3629C191.627 62.2531 190.572 59.1762 190.572 55.3081C190.572 51.44 191.627 48.451 193.737 46.2533C195.847 44.1434 198.484 43.0005 201.561 43.0005C204.55 43.0005 207.187 44.1434 209.297 46.2533C211.407 48.451 212.55 51.44 212.55 55.3081C212.55 59.1762 211.407 62.2531 209.297 64.3629C207.187 66.5607 204.55 67.6157 201.561 67.6157ZM201.561 32.3633C195.056 32.3633 189.605 34.5611 185.298 38.8687C180.99 43.2643 178.88 48.7148 178.88 55.3081C178.88 61.9893 180.99 67.4398 185.298 71.7475C189.605 76.143 195.056 78.2529 201.561 78.2529C208.067 78.2529 213.429 76.143 217.737 71.7475C222.044 67.4398 224.242 61.9893 224.242 55.3081C224.242 48.7148 222.044 43.2643 217.737 38.8687C213.429 34.5611 208.067 32.3633 201.561 32.3633Z" fill="#391463"/>
<path d="M259.845 33.5061C258.614 33.4182 257.735 33.3303 257.12 33.3303C250.966 33.3303 246.922 35.616 244.812 40.0995V33.682H233.471V76.9342H245.164V57.1542C245.164 52.8466 246.131 49.7697 248.241 47.8357C250.262 45.9016 252.988 44.9346 256.328 44.9346C257.471 44.9346 258.614 45.1104 259.845 45.2862V33.5061Z" fill="#391463"/>
<path d="M279.761 76.9342V51.6158C279.761 49.1543 280.465 47.1324 281.959 45.55C283.366 43.9676 285.388 43.0885 287.849 43.0885C290.311 43.0885 292.245 43.8797 293.563 45.3741C294.794 46.8686 295.498 48.8027 295.498 51.2642V76.9342H307.102V51.6158C307.102 49.2422 307.805 47.2203 309.3 45.55C310.706 43.9676 312.64 43.0885 315.102 43.0885C317.651 43.0885 319.585 43.8797 320.816 45.3741C322.047 46.8686 322.75 48.8027 322.75 51.2642V76.9342H334.09V48.8906C334.09 43.4401 332.508 39.3962 329.519 36.583C326.53 33.8578 322.838 32.4512 318.442 32.4512C312.376 32.4512 307.805 34.9127 304.728 39.6599C302.443 34.9127 298.135 32.4512 291.893 32.4512C289.344 32.4512 286.882 33.0666 284.509 34.2094C282.047 35.4402 280.289 37.0226 279.234 38.9566V33.682H268.069V76.9342H279.761Z" fill="#391463"/>
<path d="M430.525 67.6157C427.448 67.6157 424.811 66.5607 422.701 64.3629C420.591 62.2531 419.536 59.1762 419.536 55.3081C419.536 51.44 420.591 48.451 422.701 46.2533C424.811 44.1434 427.448 43.0005 430.525 43.0005C433.514 43.0005 436.151 44.1434 438.261 46.2533C440.371 48.451 441.514 51.44 441.514 55.3081C441.514 59.1762 440.371 62.2531 438.261 64.3629C436.151 66.5607 433.514 67.6157 430.525 67.6157ZM430.525 32.3633C424.019 32.3633 418.569 34.5611 414.261 38.8687C409.954 43.2643 407.844 48.7148 407.844 55.3081C407.844 61.9893 409.954 67.4398 414.261 71.7475C418.569 76.143 424.019 78.2529 430.525 78.2529C437.03 78.2529 442.393 76.143 446.7 71.7475C451.008 67.4398 453.206 61.9893 453.206 55.3081C453.206 48.7148 451.008 43.2643 446.7 38.8687C442.393 34.5611 437.03 32.3633 430.525 32.3633Z" fill="#391463"/>
<path d="M481.863 67.6157C478.787 67.6157 476.149 66.5607 474.039 64.3629C471.93 62.2531 470.875 59.1762 470.875 55.3081C470.875 51.44 471.93 48.451 474.039 46.2533C476.149 44.1434 478.787 43.0005 481.863 43.0005C484.852 43.0005 487.49 44.1434 489.6 46.2533C491.71 48.451 492.852 51.44 492.852 55.3081C492.852 59.1762 491.71 62.2531 489.6 64.3629C487.49 66.5607 484.852 67.6157 481.863 67.6157ZM481.863 32.3633C475.358 32.3633 469.908 34.5611 465.6 38.8687C461.292 43.2643 459.182 48.7148 459.182 55.3081C459.182 61.9893 461.292 67.4398 465.6 71.7475C469.908 76.143 475.358 78.2529 481.863 78.2529C488.369 78.2529 493.731 76.143 498.039 71.7475C502.347 67.4398 504.545 61.9893 504.545 55.3081C504.545 48.7148 502.347 43.2643 498.039 38.8687C493.731 34.5611 488.369 32.3633 481.863 32.3633Z" fill="#391463"/>
<path d="M525.466 76.9342V51.6158C525.466 49.1543 526.169 47.1324 527.664 45.55C529.07 43.9676 531.092 43.0885 533.554 43.0885C536.015 43.0885 537.949 43.8797 539.268 45.3741C540.499 46.8686 541.202 48.8027 541.202 51.2642V76.9342H552.806V51.6158C552.806 49.2422 553.51 47.2203 555.004 45.55C556.411 43.9676 558.345 43.0885 560.806 43.0885C563.356 43.0885 565.29 43.8797 566.521 45.3741C567.751 46.8686 568.455 48.8027 568.455 51.2642V76.9342H579.795V48.8906C579.795 43.4401 578.213 39.3962 575.224 36.583C572.235 33.8578 568.542 32.4512 564.147 32.4512C558.081 32.4512 553.51 34.9127 550.433 39.6599C548.147 34.9127 543.839 32.4512 537.598 32.4512C535.048 32.4512 532.587 33.0666 530.213 34.2094C527.752 35.4402 525.993 37.0226 524.939 38.9566V33.682H513.774V76.9342H525.466Z" fill="#391463"/>
<path d="M604.739 76.9342V52.6708H628.915V41.5061H604.651V26.1216H631.904V14.6053H592.52V76.9342H604.739Z" fill="#391463"/>
<path d="M665.878 76.9342H677.043C676.691 74.4727 676.603 71.9233 676.603 69.1101V33.682H664.911V58.8245C664.911 61.4619 664.12 63.4838 662.713 65.0662C661.219 66.6486 659.197 67.3519 656.735 67.3519C654.098 67.3519 652.164 66.5607 650.845 64.9783C649.439 63.3959 648.823 61.2861 648.823 58.6487V33.682H637.131V61.0223C637.131 65.9453 638.538 69.9893 641.527 73.242C644.428 76.4947 648.471 78.0771 653.57 78.0771C656.032 78.0771 658.318 77.6375 660.515 76.6705C662.713 75.7035 664.383 74.209 665.526 72.2749C665.526 74.209 665.614 75.7914 665.878 76.9342Z" fill="#391463"/>
<path d="M700.773 52.0554C700.773 49.506 701.476 47.3961 702.971 45.6379C704.377 43.9676 706.399 43.0885 708.861 43.0885C711.498 43.0885 713.52 43.8797 714.839 45.4621C716.158 47.0445 716.861 49.1543 716.861 51.7037V76.9342H728.553V49.6818C728.553 44.6709 727.146 40.539 724.509 37.3742C721.872 34.2094 718.004 32.5391 712.905 32.5391C710.355 32.5391 707.982 33.1545 705.696 34.2094C703.41 35.3523 701.652 36.9347 700.421 39.0445V33.682H689.081V76.9342H700.773V52.0554Z" fill="#391463"/>
<path d="M781.65 13.2866H770.134V37.9896C768.2 34.4732 764.068 32.627 757.914 32.627C751.848 32.627 746.837 34.8248 742.969 39.1325C739.101 43.528 737.167 48.8906 737.167 55.2202C737.167 61.8135 739.101 67.264 743.057 71.5717C747.013 75.8793 752.112 77.9892 758.266 77.9892C761.079 77.9892 763.54 77.4617 765.65 76.3188C767.76 75.2639 769.342 73.7694 770.397 71.9233C770.397 73.8573 770.485 75.5276 770.837 76.9342H782.002C781.738 74.6485 781.65 72.0112 781.65 69.1101V13.2866ZM748.947 55.2202C748.947 51.5279 749.914 48.5389 751.936 46.3412C753.958 44.2313 756.507 43.0885 759.672 43.0885C762.749 43.0885 765.299 44.2313 767.32 46.3412C769.255 48.451 770.309 51.44 770.309 55.1323C770.309 59.0004 769.255 61.9893 767.32 64.1871C765.299 66.4728 762.749 67.5277 759.672 67.5277C756.507 67.5277 753.87 66.4728 751.936 64.275C749.914 62.0773 748.947 59.0883 748.947 55.2202Z" fill="#391463"/>
<path fill-rule="evenodd" clip-rule="evenodd" d="M346.016 77.0678H358.643V58.0746H374.601C374.601 58.0746 376.471 62.2921 379.386 67.125C391.38 87.0103 411.451 76.5707 411.451 76.5707L405.635 68.2437C405.635 68.2437 399.458 71.4749 393.244 65.2608C389.696 61.7134 386.607 54.2618 386.607 54.2618C386.607 54.2618 395.978 48.4825 395.978 36.6756C395.978 19.276 382.058 13.8821 373.98 13.8821H346.016V77.0678ZM358.651 26.5459V45.4121H374.609C374.609 45.4121 383.308 45.0498 383.308 35.979C383.308 26.9082 374.609 26.5459 374.609 26.5459H358.651Z" fill="#391463"/>
<path d="M5.37521 5.42404H86.0269V86.0757H58.751V91.2791L91.2302 91.279V0.220703H0.171875V91.279L28.7849 91.2791V86.0757H5.37521V5.42404Z" fill="#391463"/>
<path d="M27.2003 86.0757H33.9935V91.279H27.2003V86.0757Z" fill="#391463"/>
<path d="M28.7902 55.8955C29.5408 55.8955 30.777 55.8953 31.3919 55.8953C32.4956 55.8951 32.9095 56.3011 33.9935 56.5179V91.279L28.7902 91.279V55.8955Z" fill="#391463"/>
<path d="M63.9805 86.0757C62.2072 69.4406 48.3731 56.4087 31.3919 55.8953L31.3921 61.1025C45.4975 61.6069 57.0021 72.3194 58.7417 86.0757H63.9805Z" fill="#391463"/>
</svg>
