<?xml version="1.0" standalone="no"?>
<!DOCTYPE svg PUBLIC "-//W3C//DTD SVG 20010904//EN"
 "http://www.w3.org/TR/2001/REC-SVG-20010904/DTD/svg10.dtd">
<svg version="1.0" xmlns="http://www.w3.org/2000/svg"
 width="88.000000pt" height="88.000000pt" viewBox="0 0 88.000000 88.000000"
 preserveAspectRatio="xMidYMid meet">
<metadata>
Created by potrace 1.11, written by Peter Selinger 2001-2013
</metadata>
<g transform="translate(0.000000,88.000000) scale(0.100000,-0.100000)"
fill="#000000" stroke="none">
<path d="M10 440 l0 -440 163 2 162 3 3 158 c3 181 0 178 98 130 84 -41 163
-142 164 -210 0 -12 5 -25 11 -29 17 -10 2 61 -22 108 -50 97 -148 166 -250
175 l-59 6 0 -162 0 -161 -130 0 -130 0 0 420 0 420 425 0 425 0 0 -420 0
-420 -150 0 c-93 0 -150 -4 -150 -10 0 -6 58 -10 155 -10 l155 0 0 440 0 440
-435 0 -435 0 0 -440z"/>
</g>
</svg>
