<svg width="24" height="24" viewBox="0 0 24 24" fill="none" xmlns="http://www.w3.org/2000/svg">
<path d="M22.3999 5.54957C21.6343 5.88957 20.8119 6.11837 19.9487 6.22157C20.8303 5.69357 21.5063 4.85757 21.8247 3.86077C21.0007 4.34957 20.0871 4.70477 19.1143 4.89677C18.3359 4.06717 17.2271 3.54877 15.9999 3.54877C13.6431 3.54877 11.7327 5.45997 11.7327 7.81597C11.7327 8.15037 11.7711 8.47677 11.8431 8.78797C8.29672 8.61037 5.15272 6.91117 3.04712 4.32877C2.68072 4.95917 2.47032 5.69197 2.47032 6.47517C2.47032 7.95517 3.22312 9.26157 4.36792 10.0264C3.66872 10.004 3.01032 9.81197 2.43512 9.49277C2.43512 9.51117 2.43512 9.52797 2.43512 9.54637C2.43512 11.6144 3.90552 13.3392 5.85832 13.7304C5.50072 13.828 5.12312 13.88 4.73352 13.88C4.45912 13.88 4.19112 13.8528 3.93112 13.804C4.47432 15.4992 6.05032 16.7336 7.91752 16.768C6.45752 17.9128 4.61752 18.5952 2.61752 18.5952C2.27352 18.5952 1.93352 18.5752 1.59912 18.5352C3.48792 19.7456 5.73032 20.452 8.14072 20.452C15.9903 20.452 20.2815 13.9496 20.2815 8.31037C20.2815 8.12557 20.2775 7.94157 20.2695 7.75837C21.1039 7.15597 21.8279 6.40477 22.3999 5.54957Z" fill="#391463"/>
</svg>
